<?xml version="1.0" encoding="UTF-8"?>
<svg width="1200" height="630" viewBox="0 0 1200 630" xmlns="http://www.w3.org/2000/svg">
  <defs>
    <!-- Background gradient matching web theme -->
    <linearGradient id="bg" x1="0" y1="0" x2="1" y2="1" gradientUnits="objectBoundingBox">
      <stop offset="0%"   stop-color="#0f1117"/>
      <stop offset="100%" stop-color="#150f24"/>
    </linearGradient>
    <!-- Purple glow gradient -->
    <linearGradient id="pgGrad" x1="0%" y1="0%" x2="100%" y2="0%">
      <stop offset="0%"   stop-color="#c084fc"/>
      <stop offset="100%" stop-color="#7c3aed"/>
    </linearGradient>
    <!-- Card bg gradient -->
    <linearGradient id="cardBg" x1="0%" y1="0%" x2="100%" y2="100%">
      <stop offset="0%"   stop-color="#1c2030"/>
      <stop offset="100%" stop-color="#1a1626"/>
    </linearGradient>
    <!-- Neural glow filter -->
    <filter id="glow">
      <feGaussianBlur stdDeviation="3" result="blur"/>
      <feComposite in="SourceGraphic" in2="blur" operator="over"/>
    </filter>
  </defs>

  <!-- Background -->
  <rect width="1200" height="630" fill="url(#bg)"/>

  <!-- Grid lines overlay (subtle terminal aesthetic) -->
  <line x1="0" y1="58" x2="1200" y2="58" stroke="#ffffff" stroke-width="0.5" opacity="0.04"/>
  <line x1="0" y1="580" x2="1200" y2="580" stroke="#c084fc" stroke-width="0.5" opacity="0.15"/>
  <line x1="60" y1="0" x2="60" y2="630" stroke="#ffffff" stroke-width="0.5" opacity="0.03"/>
  <line x1="1140" y1="0" x2="1140" y2="630" stroke="#ffffff" stroke-width="0.5" opacity="0.03"/>

  <!-- Terminal window chrome bar -->
  <rect x="0" y="0" width="1200" height="52" fill="#1c2030" opacity="0.9"/>
  <circle cx="26" cy="26" r="7" fill="#ff5f56"/>
  <circle cx="50" cy="26" r="7" fill="#febc2e"/>
  <circle cx="74" cy="26" r="7" fill="#28c840"/>
  <!-- Window title -->
  <text x="600" y="32" text-anchor="middle" font-family="monospace, 'Courier New'" font-size="13" fill="#6b7280">santiago@sfseoane.es ~ portfolio 2026</text>
  <!-- Prompt icon -->
  <text x="1150" y="32" text-anchor="middle" font-family="monospace" font-size="13" fill="#c084fc" opacity="0.7">●</text>

  <!-- LEFT COLUMN — Name + Role -->

  <!-- Blinking cursor before name (decorative) -->
  <rect x="60" y="100" width="4" height="72" rx="2" fill="#c084fc" opacity="0.8"/>

  <!-- Name -->
  <text x="80" y="155" font-family="monospace, 'Courier New'" font-size="74" font-weight="bold" letter-spacing="-2" fill="#eff2f8">SFSEOANE</text>
  <text x="80" y="200" font-family="monospace, 'Courier New'" font-size="26" fill="#c084fc" letter-spacing="6">.ES</text>

  <!-- Role line -->
  <text x="80" y="248" font-family="monospace, 'Courier New'" font-size="22" fill="#9fa3ac">Data &amp; AI Engineer  ·  Python  ·  React  ·  RAG</text>

  <!-- Year badge -->
  <rect x="80" y="268" width="76" height="26" rx="13" fill="#c084fc" fill-opacity="0.15" stroke="#c084fc" stroke-width="1" stroke-opacity="0.4"/>
  <text x="118" y="286" text-anchor="middle" font-family="monospace" font-size="12" fill="#c084fc">2026</text>

  <!-- Employment badge -->
  <rect x="172" y="268" width="166" height="26" rx="13" fill="#034d3f" stroke="#10b981" stroke-width="1"/>
  <circle cx="191" cy="281" r="4" fill="#10b981"/>
  <text x="204" y="286" font-family="monospace" font-size="12" fill="#34d399">Employed @ Qaleon</text>

  <!-- RIGHT SIDE — Neural network decoration -->
  <circle cx="1040" cy="120" r="10" fill="#c084fc" opacity="0.5" filter="url(#glow)"/>
  <circle cx="1110" cy="160" r="7"  fill="#c084fc" opacity="0.35"/>
  <circle cx="1070" cy="220" r="8"  fill="#7c3aed" opacity="0.5"/>
  <circle cx="1130" cy="95"  r="5"  fill="#c084fc" opacity="0.25"/>
  <circle cx="990"  cy="180" r="6"  fill="#7c3aed" opacity="0.4"/>
  <line x1="1040" y1="120" x2="1110" y2="160" stroke="#c084fc" stroke-width="1.5" opacity="0.25"/>
  <line x1="1040" y1="120" x2="1070" y2="220" stroke="#c084fc" stroke-width="1.5" opacity="0.25"/>
  <line x1="1110" y1="160" x2="1070" y2="220" stroke="#c084fc" stroke-width="1.5" opacity="0.25"/>
  <line x1="1040" y1="120" x2="990"  y2="180" stroke="#7c3aed" stroke-width="1"   opacity="0.2"/>
  <line x1="1130" y1="95"  x2="1110" y2="160" stroke="#c084fc" stroke-width="1"   opacity="0.2"/>
  <line x1="990"  y1="180" x2="1070" y2="220" stroke="#7c3aed" stroke-width="1"   opacity="0.2"/>

  <!-- STATS ROW -->

  <!-- Stat 1: 3+ Years -->
  <rect x="60" y="315" width="240" height="108" rx="10" fill="url(#cardBg)" stroke="#c084fc" stroke-width="1.5" stroke-opacity="0.35"/>
  <text x="88" y="358" font-family="monospace" font-size="44" font-weight="bold" fill="#c084fc">5m</text>
  <text x="88" y="382" font-family="monospace" font-size="13" fill="#9fa3ac">@ Qaleon</text>
  <text x="88" y="400" font-family="monospace" font-size="11" fill="#c084fc" opacity="0.5">Oct 2025 →</text>

  <!-- Stat 2: 5+ Projects -->
  <rect x="320" y="315" width="240" height="108" rx="10" fill="url(#cardBg)" stroke="#c084fc" stroke-width="1.5" stroke-opacity="0.35"/>
  <text x="348" y="358" font-family="monospace" font-size="44" font-weight="bold" fill="#c084fc">5+</text>
  <text x="348" y="382" font-family="monospace" font-size="13" fill="#9fa3ac">Production Projects</text>
  <text x="348" y="400" font-family="monospace" font-size="11" fill="#c084fc" opacity="0.5">RAG · CV · ETL</text>

  <!-- Stat 3: +1M Records -->
  <rect x="580" y="315" width="240" height="108" rx="10" fill="url(#cardBg)" stroke="#c084fc" stroke-width="1.5" stroke-opacity="0.35"/>
  <text x="608" y="358" font-family="monospace" font-size="44" font-weight="bold" fill="#c084fc">+1M</text>
  <text x="608" y="382" font-family="monospace" font-size="13" fill="#9fa3ac">Records/Month</text>
  <text x="608" y="400" font-family="monospace" font-size="11" fill="#c084fc" opacity="0.5">Airflow Pipelines</text>

  <!-- Stat 4: AI in Production -->
  <rect x="840" y="315" width="300" height="108" rx="10" fill="#0a2e20" stroke="#10b981" stroke-width="1.5" stroke-opacity="0.6"/>
  <text x="868" y="358" font-family="monospace" font-size="32" font-weight="bold" fill="#10b981">AI Production</text>
  <text x="868" y="382" font-family="monospace" font-size="13" fill="#6ee7b7">LLMs · Vision · NLP</text>
  <text x="868" y="400" font-family="monospace" font-size="11" fill="#10b981" opacity="0.6">FastAPI · LangChain · PyTorch</text>

  <!-- SKILLS TAGS ROW -->
  <rect x="60"  y="445" width="95"  height="32" rx="16" fill="#0e1a2a" stroke="#22d3ee" stroke-width="1.2"/>
  <text x="107" y="466" text-anchor="middle" font-family="monospace" font-size="13" fill="#22d3ee">Python</text>

  <rect x="167" y="445" width="80" height="32" rx="16" fill="#0e1a2a" stroke="#22d3ee" stroke-width="1.2"/>
  <text x="207" y="466" text-anchor="middle" font-family="monospace" font-size="13" fill="#22d3ee">SQL</text>

  <rect x="259" y="445" width="95" height="32" rx="16" fill="#0e1a2a" stroke="#22d3ee" stroke-width="1.2"/>
  <text x="306" y="466" text-anchor="middle" font-family="monospace" font-size="13" fill="#22d3ee">Airflow</text>

  <rect x="366" y="445" width="75" height="32" rx="16" fill="#0e1a2a" stroke="#22d3ee" stroke-width="1.2"/>
  <text x="404" y="466" text-anchor="middle" font-family="monospace" font-size="13" fill="#22d3ee">RAG</text>

  <rect x="453" y="445" width="105" height="32" rx="16" fill="#0e1a2a" stroke="#22d3ee" stroke-width="1.2"/>
  <text x="505" y="466" text-anchor="middle" font-family="monospace" font-size="13" fill="#22d3ee">FastAPI</text>

  <rect x="570" y="445" width="115" height="32" rx="16" fill="#0e1a2a" stroke="#22d3ee" stroke-width="1.2"/>
  <text x="627" y="466" text-anchor="middle" font-family="monospace" font-size="13" fill="#22d3ee">LangChain</text>

  <rect x="697" y="445" width="115" height="32" rx="16" fill="#0e1a2a" stroke="#22d3ee" stroke-width="1.2"/>
  <text x="754" y="466" text-anchor="middle" font-family="monospace" font-size="13" fill="#22d3ee">TypeScript</text>

  <rect x="824" y="445" width="85" height="32" rx="16" fill="#0e1a2a" stroke="#22d3ee" stroke-width="1.2"/>
  <text x="866" y="466" text-anchor="middle" font-family="monospace" font-size="13" fill="#22d3ee">React</text>

  <rect x="921" y="445" width="120" height="32" rx="16" fill="#0e1a2a" stroke="#22d3ee" stroke-width="1.2"/>
  <text x="981" y="466" text-anchor="middle" font-family="monospace" font-size="13" fill="#22d3ee">PostgreSQL</text>

  <rect x="1053" y="445" width="87" height="32" rx="16" fill="#0e1a2a" stroke="#22d3ee" stroke-width="1.2"/>
  <text x="1096" y="466" text-anchor="middle" font-family="monospace" font-size="13" fill="#22d3ee">Docker</text>

  <!-- Prompt line -->
  <text x="60" y="528" font-family="monospace" font-size="15" fill="#c084fc" opacity="0.7">❯</text>
  <text x="84" y="528" font-family="monospace" font-size="15" fill="#eff2f8" opacity="0.5">ask_anything  <tspan fill="#c084fc" opacity="0.9">_</tspan></text>

  <!-- URL bottom -->
  <text x="60" y="563" font-family="monospace" font-size="13" fill="#6b7280">sfseoane.es</text>
  <text x="600" y="563" text-anchor="middle" font-family="monospace" font-size="13" fill="#6b7280">AI Portfolio Terminal · Explore interactively</text>
  <text x="1140" y="563" text-anchor="end" font-family="monospace" font-size="13" fill="#6b7280">© 2026</text>

  <!-- Bottom purple accent bar -->
  <rect x="0" y="580" width="1200" height="6" fill="url(#pgGrad)" opacity="0.9"/>
</svg>
